<svg width="281" height="76" viewBox="0 0 281 76" fill="none" xmlns="http://www.w3.org/2000/svg">
<path d="M8.9556e-06 75.1064V0.638302H5.74469V31.0638H14.2553V0.638302H20V75.1064H14.2553V35.9574H5.74469V75.1064H8.9556e-06ZM25.4305 75.1064L33.5156 0.638302H40.4305L48.5156 75.1064H42.771L41.1752 57.9787H32.4518L30.8561 75.1064H25.4305ZM32.8773 53.4043H40.7497L36.8135 12.3404L32.8773 53.4043ZM56.0672 75.1064V5.74469H48.9395V0.638302H68.9395V5.74469H61.8118V75.1064H56.0672ZM81.5941 75.8511C71.8069 75.8511 71.1686 63.2979 72.126 45.2128H77.8707C77.0196 58.617 77.2324 70.6383 81.8069 70.6383C85.1047 70.6383 85.743 64.4681 85.743 60.6383C85.743 42.234 72.126 31.4894 72.126 13.5106C72.126 5.21277 75.4239 1.90735e-06 81.7005 1.90735e-06C91.7005 1.90735e-06 91.5941 12.8723 90.9558 25H85.3175C85.5303 18.8298 86.4877 5.21277 81.7005 5.21277C79.4664 5.21277 77.7643 8.29787 77.7643 13.5106C77.7643 29.6809 91.4877 40.3192 91.4877 59.8936C91.4877 70.3192 87.8707 75.8511 81.5941 75.8511ZM107.107 75.8511C100.618 75.8511 97.6388 69.6809 97.6388 57.4468V0.638302H103.383V58.0851C103.383 66.2766 104.554 70.5319 107.107 70.5319C109.554 70.5319 110.83 66.2766 110.83 58.0851V0.638302H116.575V57.4468C116.575 69.6809 113.49 75.8511 107.107 75.8511ZM124.902 75.1064V0.638302H130.222L140.753 53.2979V0.638302H145.541V75.1064H140.647L129.69 22.766V75.1064H124.902ZM154.004 75.1064V0.638302H170.706V5.95745H159.749V26.383H168.366V31.2766H159.749V69.7872H171.132V75.1064H154.004ZM186.523 75.1064V0.638302H193.438L200.247 56.7021L207.162 0.638302H213.97V75.1064H208.651V18.8298L201.63 75.1064H198.651L191.63 18.8298V75.1064H186.523ZM222.461 75.1064V0.638302H228.206V75.1064H222.461ZM236.719 75.1064V0.638302H242.463V32.234C246.825 25.8511 250.123 15.3192 249.485 0.638302H255.442C256.08 17.234 250.229 29.4681 244.697 34.7872L247.783 35.5319L258.208 75.1064H251.719L242.463 36.2766V75.1064H236.719ZM271.267 75.8511C264.778 75.8511 261.799 69.6809 261.799 57.4468V0.638302H267.544V58.0851C267.544 66.2766 268.714 70.5319 271.267 70.5319C273.714 70.5319 274.99 66.2766 274.99 58.0851V0.638302H280.735V57.4468C280.735 69.6809 277.65 75.8511 271.267 75.8511Z" fill="#39C3B7"/>
</svg>
