<svg width="1223" height="93" viewBox="0 0 1223 93" fill="none" xmlns="http://www.w3.org/2000/svg">
<path d="M0.78125 54.2969C11.4583 40.4948 18.6198 25 22.2656 7.8125L30.8594 10.1562C33.724 11.1979 32.5521 12.3698 27.3438 13.6719C25.7812 18.3594 23.9583 22.9167 21.875 27.3438H42.5781V2.73438L49.2188 3.90625C51.3021 5.20833 50.7812 6.11979 47.6562 6.64062V27.3438H71.0938L76.1719 22.2656L82.4219 26.9531C83.9844 28.2552 83.9844 29.1667 82.4219 29.6875H47.6562V52.7344H66.0156L71.0938 47.6562L77.3438 52.3438C78.9062 53.6458 78.9062 54.5573 77.3438 55.0781H47.6562V82.4219H75.3906L81.25 76.5625L88.6719 82.0312C90.2344 83.3333 90.2344 84.2448 88.6719 84.7656H1.95312V82.4219H42.5781V55.0781H18.3594V52.7344H42.5781V29.6875H20.7031C15.2344 40.1042 8.98438 48.6979 1.95312 55.4688C0.651042 55.9896 0.260417 55.599 0.78125 54.2969ZM148.047 17.9688C148.047 20.0521 148.047 22.1354 148.047 24.2188C154.036 23.6979 159.115 22.9167 163.281 21.875C165.625 21.3542 167.448 20.5729 168.75 19.5312C170.052 18.4896 171.224 18.3594 172.266 19.1406C173.828 20.1823 174.87 20.9635 175.391 21.4844C176.693 22.7865 176.302 23.6979 174.219 24.2188C166.667 26.0417 157.943 27.3438 148.047 28.125C148.047 33.8542 148.047 39.5833 148.047 45.3125C153.255 44.7917 157.292 44.2708 160.156 43.75C163.802 43.2292 166.146 42.5781 167.188 41.7969C168.49 41.0156 169.661 41.0156 170.703 41.7969C172.005 42.5781 173.047 43.2292 173.828 43.75C174.87 44.5312 174.609 45.3125 173.047 46.0938C172.266 46.6146 170.182 47.0052 166.797 47.2656C160.026 48.0469 153.776 48.5677 148.047 48.8281C148.047 55.0781 148.047 61.1979 148.047 67.1875C158.203 69.2708 167.188 72.1354 175 75.7812C177.344 76.8229 178.516 78.6458 178.516 81.25C178.516 82.2917 177.995 82.9427 176.953 83.2031C176.172 83.4635 175 83.0729 173.438 82.0312C164.844 76.8229 156.38 73.1771 148.047 71.0938C148.307 75.5208 147.396 78.9062 145.312 81.25C142.448 84.375 137.5 85.9375 130.469 85.9375C124.219 85.9375 119.531 84.375 116.406 81.25C114.844 79.6875 114.062 77.8646 114.062 75.7812C114.062 73.4375 115.104 71.4844 117.188 69.9219C120.573 67.3177 126.302 66.0156 134.375 66.0156C136.198 66.0156 139.323 66.1458 143.75 66.4062C143.75 60.6771 143.75 54.9479 143.75 49.2188C139.844 49.4792 135.807 49.6094 131.641 49.6094C127.214 49.6094 123.958 48.9583 121.875 47.6562C119.01 45.8333 117.708 42.1875 117.969 36.7188C118.49 35.6771 119.141 35.6771 119.922 36.7188C119.922 40.3646 120.573 42.8385 121.875 44.1406C123.438 45.7031 126.693 46.4844 131.641 46.4844C136.068 46.4844 140.104 46.224 143.75 45.7031C143.75 39.974 143.75 34.2448 143.75 28.5156C138.802 29.0365 133.073 29.2969 126.562 29.2969C121.875 29.2969 118.099 28.9062 115.234 28.125C111.328 27.0833 108.073 25 105.469 21.875C104.688 20.3125 105.078 19.9219 106.641 20.7031C109.245 23.0469 111.979 24.6094 114.844 25.3906C116.667 25.9115 120.964 26.1719 127.734 26.1719C132.943 26.1719 138.281 25.7812 143.75 25C143.75 22.9167 143.75 20.7031 143.75 18.3594C143.75 13.9323 143.359 11.1979 142.578 10.1562C141.276 8.33333 139.062 7.42188 135.938 7.42188C134.115 7.68229 133.984 7.16146 135.547 5.85938C136.849 5.33854 138.542 5.07812 140.625 5.07812C143.229 5.07812 146.354 6.11979 150 8.20312C151.823 9.24479 151.823 10.5469 150 12.1094C148.698 13.151 148.047 15.1042 148.047 17.9688ZM143.359 69.9219C137.63 69.1406 133.854 68.75 132.031 68.75C127.083 68.75 123.307 69.401 120.703 70.7031C118.099 72.0052 116.797 73.8281 116.797 76.1719C116.797 78.2552 118.099 79.9479 120.703 81.25C123.307 82.5521 126.302 83.2031 129.688 83.2031C134.375 83.2031 138.021 82.0312 140.625 79.6875C142.708 77.8646 143.62 74.6094 143.359 69.9219ZM219.531 85.5469C219.531 82.4219 216.016 77.2135 208.984 69.9219C206.38 74.349 204.297 77.8646 202.734 80.4688C202.214 81.25 201.562 81.6406 200.781 81.6406C199.74 81.6406 199.219 80.2083 199.219 77.3438C199.219 75.7812 199.74 74.349 200.781 73.0469C206.771 65.7552 213.672 55.2083 221.484 41.4062C221.484 39.3229 221.484 37.2396 221.484 35.1562C217.839 36.4583 214.714 37.7604 212.109 39.0625C211.068 39.8438 210.156 40.2344 209.375 40.2344C208.854 40.2344 207.812 39.7135 206.25 38.6719C203.385 36.849 201.953 34.5052 201.953 31.6406C202.214 30.3385 202.604 30.0781 203.125 30.8594C204.427 33.724 206.25 35.1562 208.594 35.1562C211.719 35.1562 216.016 34.2448 221.484 32.4219C221.484 27.474 221.484 22.3958 221.484 17.1875C221.484 11.4583 219.01 8.33333 214.062 7.8125C211.979 7.8125 211.979 7.29167 214.062 6.25C220.312 5.72917 224.74 7.03125 227.344 10.1562C228.906 11.1979 228.906 12.3698 227.344 13.6719C225.781 16.276 225 22.2656 225 31.6406C225.521 31.3802 226.042 30.9896 226.562 30.4688C228.125 31.25 229.167 31.901 229.688 32.4219C230.729 32.9427 230.859 33.5938 230.078 34.375C228.776 35.6771 227.083 37.7604 225 40.625C225 41.6667 225 42.7083 225 43.75C237.76 29.9479 248.438 23.0469 257.031 23.0469C263.542 23.0469 266.536 25.9115 266.016 31.6406C264.453 48.8281 263.672 59.375 263.672 63.2812C263.672 72.6562 265.625 77.3438 269.531 77.3438C277.083 77.3438 283.464 70.9635 288.672 58.2031C289.714 56.6406 290.234 56.7708 290.234 58.5938C286.068 73.6979 279.167 81.25 269.531 81.25C266.406 81.25 263.802 80.2083 261.719 78.125C259.635 76.0417 258.594 71.4844 258.594 64.4531C258.594 55.8594 259.115 44.7917 260.156 31.25C260.417 27.8646 258.984 26.1719 255.859 26.1719C248.828 26.1719 238.542 33.3333 225 47.6562C225.26 66.6667 225.521 77.0833 225.781 78.9062C226.302 82.5521 225.651 85.2865 223.828 87.1094C222.786 88.151 221.875 88.6719 221.094 88.6719C220.052 88.6719 219.531 87.6302 219.531 85.5469ZM221.094 75.3906C221.615 69.1406 221.745 60.9375 221.484 50.7812C217.578 56.5104 213.672 62.3698 209.766 68.3594C212.891 70.9635 215.885 73.4375 218.75 75.7812C219.792 76.8229 220.573 76.6927 221.094 75.3906ZM380.859 42.5781C378.255 39.974 375.391 38.6719 372.266 38.6719C367.057 38.6719 362.76 39.8438 359.375 42.1875C357.552 43.4896 356.771 45.7031 357.031 48.8281C357.552 56.3802 358.203 63.151 358.984 69.1406C370.182 71.7448 377.214 74.0885 380.078 76.1719C381.12 76.9531 381.51 78.6458 381.25 81.25C380.99 83.5938 379.688 83.9844 377.344 82.4219C369.792 77.7344 363.802 74.6094 359.375 73.0469C359.375 78.5156 357.812 82.4219 354.688 84.7656C352.344 86.5885 349.089 87.5 344.922 87.5C340.495 87.5 337.109 86.3281 334.766 83.9844C332.943 82.1615 332.031 80.0781 332.031 77.7344C332.031 74.6094 333.333 72.1354 335.938 70.3125C338.281 68.75 341.927 67.9688 346.875 67.9688C349.219 67.9688 351.693 68.099 354.297 68.3594C353.255 58.9844 352.734 52.6042 352.734 49.2188C352.734 44.2708 354.948 40.8854 359.375 39.0625C363.802 37.2396 367.969 36.3281 371.875 36.3281C374.219 36.3281 374.87 35.5469 373.828 33.9844C370.443 29.0365 364.583 24.8698 356.25 21.4844C355.208 20.9635 355.339 20.5729 356.641 20.3125C366.276 21.875 374.219 25.7812 380.469 32.0312C383.333 34.8958 384.766 37.6302 384.766 40.2344C384.766 42.3177 384.115 43.3594 382.812 43.3594C382.031 43.3594 381.38 43.099 380.859 42.5781ZM344.531 25.7812C340.104 26.8229 335.417 27.8646 330.469 28.9062C320.312 52.0833 314.062 65.625 311.719 69.5312C310.156 72.1354 308.724 72.7865 307.422 71.4844C306.641 70.7031 306.12 69.6615 305.859 68.3594C305.599 66.276 306.25 64.4531 307.812 62.8906C309.635 61.0677 311.328 58.8542 312.891 56.25C316.276 50.5208 320.703 41.6667 326.172 29.6875C322.786 30.2083 319.401 30.9896 316.016 32.0312C314.193 33.0729 312.76 33.0729 311.719 32.0312C308.333 28.6458 306.771 26.1719 307.031 24.6094C307.031 23.3073 307.552 23.3073 308.594 24.6094C309.635 26.6927 311.849 27.7344 315.234 27.7344C319.661 27.7344 323.698 27.2135 327.344 26.1719C330.469 18.6198 332.161 13.151 332.422 9.76562C332.682 7.16146 330.99 5.46875 327.344 4.6875C326.042 4.16667 326.042 3.64583 327.344 3.125C329.688 2.86458 332.031 3.25521 334.375 4.29688C336.198 5.07812 337.76 6.11979 339.062 7.42188C340.625 8.98438 340.495 10.2865 338.672 11.3281C337.37 12.1094 335.026 16.7969 331.641 25.3906C335.286 24.6094 338.542 23.1771 341.406 21.0938C343.229 19.7917 344.792 20.1823 346.094 22.2656C347.135 24.0885 346.615 25.2604 344.531 25.7812ZM354.297 71.875C351.432 70.8333 348.568 70.3125 345.703 70.3125C342.057 70.3125 339.323 70.9635 337.5 72.2656C335.677 73.5677 334.766 75.2604 334.766 77.3438C334.766 78.9062 335.286 80.3385 336.328 81.6406C338.151 83.724 341.016 84.7656 344.922 84.7656C347.526 84.7656 349.349 84.375 350.391 83.5938C353.255 81.5104 354.557 77.6042 354.297 71.875ZM439.844 30.8594C436.979 30.8594 434.115 31.1198 431.25 31.6406C425.26 45.4427 419.141 59.2448 412.891 73.0469C412.109 74.349 410.938 76.9531 409.375 80.8594C408.594 82.9427 407.682 83.9844 406.641 83.9844C405.859 83.9844 405.208 83.3333 404.688 82.0312C404.427 81.5104 404.297 80.4688 404.297 78.9062C404.297 76.5625 405.078 74.6094 406.641 73.0469C408.203 71.4844 410.026 68.6198 412.109 64.4531C417.839 53.2552 422.917 42.5781 427.344 32.4219C419.531 33.9844 414.583 35.2865 412.5 36.3281C410.938 37.1094 409.505 36.9792 408.203 35.9375C405.599 34.1146 404.297 31.3802 404.297 27.7344C404.557 26.9531 404.948 26.9531 405.469 27.7344C406.771 30.599 408.854 32.0312 411.719 32.0312C413.542 32.0312 419.141 31.25 428.516 29.6875C429.818 26.8229 431.12 23.8281 432.422 20.7031C433.724 17.0573 433.594 14.3229 432.031 12.5C430.729 10.9375 428.646 10.026 425.781 9.76562C424.74 9.24479 424.74 8.72396 425.781 8.20312C428.385 8.20312 430.208 8.33333 431.25 8.59375C434.115 9.375 436.589 10.8073 438.672 12.8906C441.016 15.2344 440.885 16.6667 438.281 17.1875C436.458 21.3542 434.505 25.3906 432.422 29.2969C436.068 28.776 438.542 28.5156 439.844 28.5156C443.229 28.5156 445.703 29.4271 447.266 31.25C449.609 34.1146 450.781 38.9323 450.781 45.7031C450.781 65.7552 445.964 78.2552 436.328 83.2031C433.724 84.5052 432.422 83.9844 432.422 81.6406C432.422 79.8177 431.901 78.5156 430.859 77.7344C428.516 75.9115 425.911 73.9583 423.047 71.875C422.526 70.8333 422.786 70.4427 423.828 70.7031C426.693 72.2656 429.688 73.8281 432.812 75.3906C435.417 76.6927 437.76 75.9115 439.844 73.0469C442.188 69.6615 443.88 65.4948 444.922 60.5469C446.224 54.2969 446.875 48.5677 446.875 43.3594C446.875 38.6719 446.484 35.5469 445.703 33.9844C444.661 31.901 442.708 30.8594 439.844 30.8594ZM464.844 28.5156C463.542 27.474 463.802 27.0833 465.625 27.3438C470.052 29.1667 474.74 32.0312 479.688 35.9375C486.198 41.1458 489.844 47.526 490.625 55.0781C490.885 57.6823 490.495 59.6354 489.453 60.9375C487.891 63.0208 486.328 62.8906 484.766 60.5469C483.203 57.9427 481.25 56.7708 478.906 57.0312C475.26 57.2917 471.484 57.5521 467.578 57.8125C466.016 57.5521 465.885 57.0312 467.188 56.25C471.354 55.7292 475.781 55.0781 480.469 54.2969C482.292 54.0365 483.073 53.2552 482.812 51.9531C482.292 47.7865 480.339 43.4896 476.953 39.0625C473.828 34.8958 469.792 31.3802 464.844 28.5156ZM516.797 50C523.568 45.5729 528.906 42.4479 532.812 40.625C539.583 37.5 546.224 35.9375 552.734 35.9375C560.026 35.9375 566.276 38.151 571.484 42.5781C575.391 45.9635 577.344 50.5208 577.344 56.25C577.344 60.6771 576.042 64.3229 573.438 67.1875C566.667 74.7396 554.036 78.776 535.547 79.2969C533.984 78.5156 533.984 77.8646 535.547 77.3438C551.693 75.5208 562.5 71.6146 567.969 65.625C570.833 62.5 572.266 58.8542 572.266 54.6875C572.266 51.0417 571.224 48.0469 569.141 45.7031C564.974 41.276 559.505 39.0625 552.734 39.0625C544.141 39.0625 533.984 43.4896 522.266 52.3438C520.182 53.9062 518.62 55.3385 517.578 56.6406C516.276 58.2031 514.583 58.0729 512.5 56.25C508.594 52.8646 506.771 50.7812 507.031 50C507.292 48.6979 507.682 48.4375 508.203 49.2188C509.505 50.7812 510.938 51.5625 512.5 51.5625C513.802 51.5625 515.234 51.0417 516.797 50ZM649.609 25C643.88 26.3021 637.24 27.6042 629.688 28.9062C624.219 47.6562 618.75 66.1458 613.281 84.375C612.76 85.9375 611.849 86.3281 610.547 85.5469C609.766 85.026 609.245 84.1146 608.984 82.8125C608.203 79.9479 608.203 77.9948 608.984 76.9531C610.547 74.349 611.979 71.3542 613.281 67.9688C617.708 55.4688 621.875 42.7083 625.781 29.6875C619.531 30.4688 614.844 31.1198 611.719 31.6406C610.156 32.4219 608.854 32.2917 607.812 31.25C607.031 30.4688 606.12 29.4271 605.078 28.125C604.297 27.0833 603.906 25.9115 603.906 24.6094C604.167 23.3073 604.557 23.0469 605.078 23.8281C606.901 26.4323 609.505 27.7344 612.891 27.7344C617.578 27.7344 622.135 27.3438 626.562 26.5625C628.906 20.5729 630.208 15.8854 630.469 12.5C630.469 11.1979 630.078 10.1562 629.297 9.375C627.995 8.33333 626.432 7.68229 624.609 7.42188C622.786 7.42188 622.656 6.90104 624.219 5.85938C625.521 5.59896 626.953 5.46875 628.516 5.46875C630.599 5.46875 633.464 6.77083 637.109 9.375C638.932 10.6771 638.932 11.849 637.109 12.8906C635.807 13.6719 633.724 17.9688 630.859 25.7812C636.068 24.7396 640.885 22.9167 645.312 20.3125C646.094 19.5312 647.005 19.1406 648.047 19.1406C649.089 19.1406 650.26 19.9219 651.562 21.4844C652.865 23.3073 652.214 24.4792 649.609 25ZM638.672 39.4531C643.88 36.3281 649.74 34.1146 656.25 32.8125C662.76 31.5104 668.359 31.1198 673.047 31.6406C675.651 31.901 676.953 32.9427 676.953 34.7656C676.953 36.3281 675.911 37.1094 673.828 37.1094C664.714 37.1094 656.641 40.1042 649.609 46.0938C648.307 46.875 648.047 46.6146 648.828 45.3125C650.911 42.7083 654.557 40.1042 659.766 37.5C661.849 36.4583 661.589 35.9375 658.984 35.9375C654.297 35.9375 647.786 37.5 639.453 40.625C638.151 41.1458 637.891 40.7552 638.672 39.4531ZM639.062 61.7188C640.104 59.6354 640.625 59.6354 640.625 61.7188C640.365 63.8021 640.234 65.2344 640.234 66.0156C640.234 69.1406 641.406 71.875 643.75 74.2188C646.615 77.0833 651.172 78.5156 657.422 78.5156C661.328 78.5156 665.234 78.5156 669.141 78.5156C673.307 78.5156 676.042 78.125 677.344 77.3438C679.167 76.3021 680.599 76.1719 681.641 76.9531C683.464 78.2552 684.505 79.1667 684.766 79.6875C685.807 81.7708 684.766 82.8125 681.641 82.8125C675.13 82.8125 668.62 82.8125 662.109 82.8125C652.214 82.8125 645.573 81.1198 642.188 77.7344C639.583 75.1302 638.281 71.7448 638.281 67.5781C638.281 65.2344 638.542 63.2812 639.062 61.7188ZM701.172 90.625C699.87 90.625 699.74 90.1042 700.781 89.0625C709.115 85.1562 716.927 79.1667 724.219 71.0938L730.078 75.3906C732.161 76.9531 731.12 77.6042 726.953 77.3438C718.359 83.5938 709.766 88.0208 701.172 90.625ZM777.344 85.5469C773.698 81.901 767.708 77.7344 759.375 73.0469C758.333 72.0052 758.464 71.4844 759.766 71.4844C776.953 75.9115 785.547 80.7292 785.547 85.9375C785.547 88.5417 784.896 89.8438 783.594 89.8438C782.292 89.8438 780.208 88.4115 777.344 85.5469ZM761.719 4.6875L764.062 1.5625L769.531 5.46875C771.094 6.77083 770.573 7.68229 767.969 8.20312V31.25C764.583 34.375 762.891 34.5052 762.891 31.6406V28.5156H746.094V38.6719H777.344L782.422 33.5938L788.672 38.2812C790.234 39.5833 790.234 40.4948 788.672 41.0156H700V38.6719H741.016V28.5156H723.438V31.25C720.052 34.375 718.359 34.5052 718.359 31.6406V1.5625L724.219 4.6875H761.719ZM723.438 7.03125V15.625H762.891V7.03125H723.438ZM725.781 51.1719V62.8906H762.891V51.1719H725.781ZM725.781 65.2344V67.5781C722.396 70.7031 720.703 70.8333 720.703 67.9688V45.7031L726.562 48.8281H761.719L764.062 45.7031L769.531 49.6094C771.094 50.9115 770.573 51.8229 767.969 52.3438V67.5781C764.583 70.7031 762.891 70.8333 762.891 67.9688V65.2344H748.047V82.4219C748.047 85.026 747.135 87.2396 745.312 89.0625C744.271 90.1042 742.969 90.625 741.406 90.625C740.365 90.625 739.844 90.1042 739.844 89.0625C739.844 87.7604 739.062 86.849 737.5 86.3281L732.422 85.1562C731.38 84.6354 731.38 84.1146 732.422 83.5938H740.234C742.057 83.5938 742.969 82.6823 742.969 80.8594V65.2344H725.781ZM723.438 17.9688V26.1719H762.891V17.9688H723.438ZM800 45.3125C798.698 45.3125 798.438 44.7917 799.219 43.75C811.979 33.5938 823.047 19.0104 832.422 0L839.844 4.6875C840.625 6.25 839.453 6.77083 836.328 6.25C834.766 8.59375 833.073 10.8073 831.25 12.8906H857.031L859.375 9.76562L866.016 14.0625C867.839 15.3646 866.536 16.276 862.109 16.7969L849.609 32.4219H868.359L870.703 29.2969L876.172 33.2031C877.734 34.5052 877.214 35.4167 874.609 35.9375V59.7656C871.224 62.8906 869.531 63.0208 869.531 60.1562V56.25H818.359V80.4688C818.359 81.5104 818.88 82.0312 819.922 82.0312H877.344C879.948 82.0312 881.51 80.7292 882.031 78.125L884.766 65.2344C885.286 64.7135 885.677 64.7135 885.938 65.2344V78.9062C885.938 80.2083 886.458 81.25 887.5 82.0312C889.062 83.3333 888.932 84.5052 887.109 85.5469C885.807 86.3281 883.854 86.7188 881.25 86.7188H817.969C814.844 86.7188 813.281 85.1562 813.281 82.0312V35.1562C809.375 38.8021 804.948 42.1875 800 45.3125ZM829.688 15.2344C827.344 18.8802 823.307 24.0885 817.578 30.8594L819.141 32.4219H847.266L857.031 15.2344H829.688ZM846.484 53.9062H869.531V34.7656H846.484V53.9062ZM818.359 53.9062H841.406V34.7656H818.359V53.9062ZM944.531 43.3594C944.531 38.6719 944.141 35.5469 943.359 33.9844C942.318 31.901 940.365 30.8594 937.5 30.8594C936.198 30.8594 934.115 31.1198 931.25 31.6406C925.26 45.4427 919.141 59.2448 912.891 73.0469C912.109 74.349 910.938 76.9531 909.375 80.8594C908.594 82.9427 907.682 83.9844 906.641 83.9844C905.859 83.9844 905.208 83.3333 904.688 82.0312C904.427 81.5104 904.297 80.4688 904.297 78.9062C904.297 76.5625 905.078 74.6094 906.641 73.0469C908.203 71.4844 910.026 68.6198 912.109 64.4531C917.839 53.2552 922.917 42.5781 927.344 32.4219C920.312 33.724 915.365 35.026 912.5 36.3281C910.938 37.1094 909.505 36.9792 908.203 35.9375C905.599 34.1146 904.297 31.3802 904.297 27.7344C904.557 26.9531 904.948 26.9531 905.469 27.7344C907.031 30.599 909.115 32.0312 911.719 32.0312C913.802 32.0312 919.401 31.25 928.516 29.6875C929.818 26.8229 931.12 23.8281 932.422 20.7031C933.724 17.0573 933.594 14.3229 932.031 12.5C930.729 10.9375 928.646 10.026 925.781 9.76562C924.74 9.24479 924.74 8.72396 925.781 8.20312C928.385 8.20312 930.208 8.33333 931.25 8.59375C934.115 9.375 936.589 10.8073 938.672 12.8906C941.016 15.2344 940.885 16.6667 938.281 17.1875C936.458 21.3542 934.505 25.3906 932.422 29.2969C934.505 28.776 936.198 28.5156 937.5 28.5156C940.885 28.5156 943.359 29.4271 944.922 31.25C947.266 34.1146 948.438 38.9323 948.438 45.7031C948.438 65.7552 943.62 78.2552 933.984 83.2031C931.38 84.5052 930.078 83.9844 930.078 81.6406C930.078 79.8177 929.557 78.5156 928.516 77.7344C925.911 75.9115 923.307 73.9583 920.703 71.875C920.182 70.8333 920.443 70.4427 921.484 70.7031C924.609 72.526 927.604 74.0885 930.469 75.3906C933.073 76.6927 935.417 75.9115 937.5 73.0469C939.844 69.6615 941.536 65.4948 942.578 60.5469C943.88 54.2969 944.531 48.5677 944.531 43.3594ZM982.031 17.9688C980.469 18.4896 979.297 17.8385 978.516 16.0156C976.693 11.849 973.307 8.20312 968.359 5.07812C967.839 4.29688 967.969 4.03646 968.75 4.29688C973.177 5.07812 977.083 6.77083 980.469 9.375C982.031 10.6771 983.073 12.2396 983.594 14.0625C984.115 16.1458 983.594 17.4479 982.031 17.9688ZM958.203 30.0781C956.901 29.0365 957.161 28.6458 958.984 28.9062C963.411 30.7292 968.099 33.5938 973.047 37.5C979.557 42.7083 983.203 49.0885 983.984 56.6406C984.245 59.2448 983.854 61.1979 982.812 62.5C981.25 64.5833 979.688 64.4531 978.125 62.1094C976.562 59.5052 974.609 58.3333 972.266 58.5938C968.62 58.8542 964.844 59.1146 960.938 59.375C959.375 59.1146 959.245 58.5938 960.547 57.8125C964.714 57.2917 969.141 56.6406 973.828 55.8594C975.651 55.599 976.432 54.8177 976.172 53.5156C975.651 49.349 973.698 45.0521 970.312 40.625C967.188 36.4583 963.151 32.9427 958.203 30.0781ZM973.438 20.7031C973.958 22.7865 973.438 24.0885 971.875 24.6094C970.312 25.1302 969.141 24.4792 968.359 22.6562C966.536 18.4896 963.151 14.8438 958.203 11.7188C957.682 10.9375 957.812 10.6771 958.594 10.9375C963.021 11.7188 966.927 13.4115 970.312 16.0156C971.875 17.3177 972.917 18.8802 973.438 20.7031ZM1037.11 11.7188C1036.07 13.8021 1035.03 17.7083 1033.98 23.4375C1041.28 21.875 1046.48 19.7917 1049.61 17.1875C1052.47 17.4479 1054.3 17.8385 1055.08 18.3594C1057.16 19.6615 1056.25 20.9635 1052.34 22.2656C1047.4 24.0885 1041.15 25.5208 1033.59 26.5625C1032.29 34.6354 1031.64 40.3646 1031.64 43.75C1038.41 41.1458 1044.92 39.5833 1051.17 39.0625C1051.43 36.4583 1049.48 34.8958 1045.31 34.375C1044.27 33.8542 1044.4 33.3333 1045.7 32.8125C1053.78 33.3333 1057.68 35.4167 1057.42 39.0625C1067.58 39.3229 1074.74 41.5365 1078.91 45.7031C1082.81 49.6094 1084.77 54.2969 1084.77 59.7656C1084.77 65.2344 1082.42 70.3125 1077.73 75C1072.01 80.7292 1063.67 84.8958 1052.73 87.5C1050.91 87.5 1050.78 86.9792 1052.34 85.9375C1061.72 82.2917 1068.36 78.5156 1072.27 74.6094C1076.95 69.9219 1079.3 64.974 1079.3 59.7656C1079.3 54.8177 1077.73 50.7812 1074.61 47.6562C1070.96 44.0104 1064.97 42.0573 1056.64 41.7969C1054.82 45.9635 1052.47 50.5208 1049.61 55.4688C1046.74 60.4167 1043.49 64.8438 1039.84 68.75C1040.89 70.0521 1042.06 71.4844 1043.36 73.0469C1044.4 74.349 1044.27 75.5208 1042.97 76.5625C1041.41 77.6042 1039.84 77.0833 1038.28 75C1037.5 73.9583 1036.85 73.0469 1036.33 72.2656C1032.94 75.651 1029.56 78.3854 1026.17 80.4688C1022.79 82.5521 1019.4 83.4635 1016.02 83.2031C1010.81 82.6823 1007.94 79.1667 1007.42 72.6562C1006.9 65.8854 1010.03 59.375 1016.8 53.125C1019.92 50.2604 1023.7 47.6562 1028.12 45.3125C1028.12 41.4062 1028.52 35.4167 1029.3 27.3438C1025.65 27.8646 1022.14 28.2552 1018.75 28.5156C1016.41 28.776 1014.58 28.2552 1013.28 26.9531C1011.2 24.8698 1009.9 22.7865 1009.38 20.7031C1009.64 19.401 1010.16 19.2708 1010.94 20.3125C1012.5 23.4375 1015.1 25 1018.75 25C1023.18 25 1026.82 24.7396 1029.69 24.2188C1030.47 19.0104 1030.99 14.1927 1031.25 9.76562C1031.51 7.42188 1029.82 5.85938 1026.17 5.07812C1025.13 5.07812 1025.13 4.6875 1026.17 3.90625C1029.82 3.90625 1032.94 4.55729 1035.55 5.85938C1038.67 7.42188 1039.19 9.375 1037.11 11.7188ZM1028.12 48.4375C1024.48 50.5208 1021.35 52.9948 1018.75 55.8594C1014.32 60.8073 1012.11 66.276 1012.11 72.2656C1012.11 77.474 1013.67 80.2083 1016.8 80.4688C1019.4 80.7292 1022.4 79.6875 1025.78 77.3438C1028.91 75.2604 1031.77 72.7865 1034.38 69.9219C1030.47 63.6719 1028.39 56.5104 1028.12 48.4375ZM1050.78 41.7969C1041.93 43.099 1035.55 44.7917 1031.64 46.875C1032.42 55.4688 1034.51 61.9792 1037.89 66.4062C1040.76 62.7604 1043.36 58.724 1045.7 54.2969C1047.79 50.1302 1049.48 45.9635 1050.78 41.7969ZM1110.55 62.1094C1110.55 60.026 1111.59 58.0729 1113.67 56.25C1115.49 54.6875 1127.73 41.4062 1150.39 16.4062C1151.17 15.8854 1150.91 15.4948 1149.61 15.2344C1143.36 16.276 1137.11 17.8385 1130.86 19.9219C1129.04 20.9635 1127.6 21.4844 1126.56 21.4844C1126.04 21.4844 1124.74 20.7031 1122.66 19.1406C1120.05 17.0573 1118.62 14.7135 1118.36 12.1094C1118.36 10.8073 1118.88 10.6771 1119.92 11.7188C1121.48 14.0625 1124.09 15.2344 1127.73 15.2344C1131.12 15.2344 1133.2 15.1042 1133.98 14.8438C1139.19 14.0625 1144.27 13.151 1149.22 12.1094C1151.82 11.5885 1153.78 10.8073 1155.08 9.76562C1155.6 8.98438 1156.25 8.59375 1157.03 8.59375C1158.33 8.59375 1159.77 9.24479 1161.33 10.5469C1162.63 11.5885 1163.28 12.5 1163.28 13.2812C1163.28 13.8021 1162.11 14.4531 1159.77 15.2344C1156.9 16.5365 1147.92 25.1302 1132.81 41.0156C1132.03 42.3177 1132.42 42.5781 1133.98 41.7969C1139.45 39.7135 1145.05 38.6719 1150.78 38.6719C1159.38 38.6719 1166.28 41.276 1171.48 46.4844C1175.13 50.1302 1176.95 54.9479 1176.95 60.9375C1176.95 67.9688 1174.87 73.5677 1170.7 77.7344C1164.45 83.9844 1155.6 87.1094 1144.14 87.1094C1136.85 87.1094 1131.77 85.6771 1128.91 82.8125C1126.56 80.4688 1125.39 78.125 1125.39 75.7812C1125.39 73.6979 1126.17 71.875 1127.73 70.3125C1129.56 68.4896 1132.29 67.5781 1135.94 67.5781C1140.36 67.5781 1144.4 69.401 1148.05 73.0469C1150.39 75.3906 1151.95 78.6458 1152.73 82.8125C1157.68 81.7708 1161.98 79.4271 1165.62 75.7812C1169.53 71.875 1171.48 67.1875 1171.48 61.7188C1171.48 55.7292 1169.66 50.9115 1166.02 47.2656C1161.85 43.099 1155.99 41.0156 1148.44 41.0156C1140.1 41.0156 1131.64 45.3125 1123.05 53.9062C1119.66 57.2917 1116.93 60.6771 1114.84 64.0625C1114.32 65.1042 1113.41 65.625 1112.11 65.625C1111.07 65.625 1110.55 64.4531 1110.55 62.1094ZM1146.48 83.9844C1146.22 79.2969 1144.92 75.7812 1142.58 73.4375C1140.49 71.3542 1138.02 70.3125 1135.16 70.3125C1130.47 70.3125 1128.12 72.1354 1128.12 75.7812C1128.12 77.3438 1128.91 78.9062 1130.47 80.4688C1132.81 82.8125 1138.15 83.9844 1146.48 83.9844ZM1219.14 71.0938C1221.48 73.4375 1222.66 76.4323 1222.66 80.0781C1222.66 83.724 1221.48 86.7188 1219.14 89.0625C1216.8 91.4062 1213.8 92.5781 1210.16 92.5781C1206.51 92.5781 1203.52 91.4062 1201.17 89.0625C1198.83 86.7188 1197.66 83.724 1197.66 80.0781C1197.66 76.4323 1198.83 73.4375 1201.17 71.0938C1203.52 68.75 1206.51 67.5781 1210.16 67.5781C1213.8 67.5781 1216.8 68.75 1219.14 71.0938ZM1217.19 87.1094C1219.01 85.2865 1219.92 82.9427 1219.92 80.0781C1219.92 77.2135 1219.01 74.8698 1217.19 73.0469C1215.36 71.224 1213.02 70.3125 1210.16 70.3125C1207.29 70.3125 1204.95 71.224 1203.12 73.0469C1201.3 74.8698 1200.39 77.2135 1200.39 80.0781C1200.39 82.9427 1201.3 85.2865 1203.12 87.1094C1204.95 88.9323 1207.29 89.8438 1210.16 89.8438C1213.02 89.8438 1215.36 88.9323 1217.19 87.1094Z" fill="black"/>
</svg>
