<svg width="494" height="77" viewBox="0 0 494 77" fill="none" xmlns="http://www.w3.org/2000/svg">
<path d="M6.70211 75.3192L-1.94833e-05 0.851071H5.85104L9.99998 62.766L15.9574 0.851071H21.7021L27.6596 62.6596L31.8085 0.851071H37.5532L30.7447 75.3192H24.5744L18.7234 15.2128L12.8723 75.3192H6.70211ZM43.3822 75.3192V0.851071H49.1269V31.2766H57.6375V0.851071H63.3822V75.3192H57.6375V36.1702H49.1269V75.3192H43.3822ZM68.8127 75.3192L76.8978 0.851071H83.8127L91.8978 75.3192H86.1532L84.5574 58.1915H75.834L74.2383 75.3192H68.8127ZM76.2595 53.617H84.1319L80.1957 12.5532L76.2595 53.617ZM99.4494 75.3192V5.95745H92.3217V0.851071H112.322V5.95745H105.194V75.3192H99.4494ZM127.66 75.3192V0.851071H133.404V75.3192H127.66ZM149.683 76.0638C139.896 76.0638 139.258 63.5106 140.215 45.4255H145.96C145.109 58.8298 145.322 70.8511 149.896 70.8511C153.194 70.8511 153.832 64.6809 153.832 60.8511C153.832 42.4468 140.215 31.7021 140.215 13.7234C140.215 5.42554 143.513 0.21277 149.79 0.21277C159.79 0.21277 159.683 13.0851 159.045 25.2128H153.407C153.619 19.0426 154.577 5.42554 149.79 5.42554C147.556 5.42554 145.854 8.51064 145.854 13.7234C145.854 29.8936 159.577 40.5319 159.577 60.1064C159.577 70.5319 155.96 76.0638 149.683 76.0638ZM176.195 75.3192V0.851071H181.939V31.2766H190.45V0.851071H196.195V75.3192H190.45V36.1702H181.939V75.3192H176.195ZM201.625 75.3192L209.71 0.851071H216.625L224.71 75.3192H218.966L217.37 58.1915H208.647L207.051 75.3192H201.625ZM209.072 53.617H216.944L213.008 12.5532L209.072 53.617ZM232.262 75.3192V5.95745H225.134V0.851071H245.134V5.95745H238.007V75.3192H232.262ZM257.789 76.0638C248.002 76.0638 247.363 63.5106 248.321 45.4255H254.065C253.214 58.8298 253.427 70.8511 258.002 70.8511C261.299 70.8511 261.938 64.6809 261.938 60.8511C261.938 42.4468 248.321 31.7021 248.321 13.7234C248.321 5.42554 251.619 0.21277 257.895 0.21277C267.895 0.21277 267.789 13.0851 267.15 25.2128H261.512C261.725 19.0426 262.682 5.42554 257.895 5.42554C255.661 5.42554 253.959 8.51064 253.959 13.7234C253.959 29.8936 267.682 40.5319 267.682 60.1064C267.682 70.5319 264.065 76.0638 257.789 76.0638ZM283.302 76.0638C276.812 76.0638 273.834 69.8936 273.834 57.6596V0.851071H279.578V58.2979C279.578 66.4894 280.748 70.7447 283.302 70.7447C285.748 70.7447 287.025 66.4894 287.025 58.2979V0.851071H292.77V57.6596C292.77 69.8936 289.685 76.0638 283.302 76.0638ZM301.097 75.3192V0.851071H306.416L316.948 53.5106V0.851071H321.735V75.3192H316.842L305.884 22.9787V75.3192H301.097ZM330.199 75.3192V0.851071H346.901V6.17022H335.943V26.5958H344.56V31.4894H335.943V70H347.326V75.3192H330.199ZM362.718 75.3192V0.851071H369.633L376.442 56.9149L383.356 0.851071H390.165V75.3192H384.846V19.0426L377.825 75.3192H374.846L367.825 19.0426V75.3192H362.718ZM398.656 75.3192V0.851071H404.4V75.3192H398.656ZM412.913 75.3192V0.851071H418.658V32.4468C423.02 26.0638 426.318 15.5319 425.679 0.851071H431.637C432.275 17.4468 426.424 29.6809 420.892 35L423.977 35.7447L434.403 75.3192H427.913L418.658 36.4894V75.3192H412.913ZM447.462 76.0638C440.972 76.0638 437.994 69.8936 437.994 57.6596V0.851071H443.738V58.2979C443.738 66.4894 444.909 70.7447 447.462 70.7447C449.909 70.7447 451.185 66.4894 451.185 58.2979V0.851071H456.93V57.6596C456.93 69.8936 453.845 76.0638 447.462 76.0638ZM482.107 62.1277C481.362 40.6383 487.426 33.2979 487.426 17.766C487.426 12.4468 486.575 5.31915 483.703 5.31915C481.149 5.31915 479.341 11.1702 479.873 28.8298H474.022C473.277 6.48937 476.575 5.72205e-06 483.809 5.72205e-06C490.83 5.72205e-06 493.277 6.70213 493.277 16.0638C493.277 34.5745 485.405 39.8936 485.086 62.1277H482.107ZM483.383 75.8511C480.937 75.8511 479.235 73.8298 479.235 70.9575C479.235 68.0851 480.937 66.0638 483.383 66.0638C485.83 66.0638 487.532 68.0851 487.532 70.9575C487.532 73.8298 485.83 75.8511 483.383 75.8511Z" fill="white"/>
</svg>
