<svg width="1011" height="81" viewBox="0 0 1011 81" fill="none" xmlns="http://www.w3.org/2000/svg">
<path d="M14.4141 19.3359C17.4609 19.3359 22.1484 18.6328 28.4766 17.2266C26.3672 11.3672 24.8438 7.73438 23.9062 6.32812C22.9688 4.92188 20.9766 4.21875 17.9297 4.21875C17.2266 4.21875 17.1094 3.86719 17.5781 3.16406C20.8594 1.99219 23.3203 1.75781 24.9609 2.46094C25.6641 2.69531 26.8359 3.39844 28.4766 4.57031C29.8828 5.50781 30.3516 6.67969 29.8828 8.08594C30.1172 10.4297 30.8203 13.2422 31.9922 16.5234C35.2734 15.5859 37.6172 14.5313 39.0234 13.3594C39.9609 12.1875 40.7812 11.6016 41.4844 11.6016C42.4219 11.6016 43.2422 11.8359 43.9453 12.3047C44.6484 12.5391 45.3516 12.8906 46.0547 13.3594C47.2266 14.0625 47.1094 14.7656 45.7031 15.4688C43.8281 16.4062 39.6094 17.6953 33.0469 19.3359C34.6875 23.5547 36.3281 27.3047 37.9688 30.5859C41.7188 29.6484 45.3516 28.4766 48.8672 27.0703C51.2109 26.1328 52.8516 25.0781 53.7891 23.9062C54.4922 22.9688 55.5469 22.7344 56.9531 23.2031C59.0625 24.1406 60.2344 24.7266 60.4688 24.9609C61.4062 25.8984 61.1719 26.7188 59.7656 27.4219C56.9531 28.5938 54.7266 29.4141 53.0859 29.8828C48.6328 31.2891 44.1797 32.5781 39.7266 33.75C43.7109 40.7812 46.4062 45.2344 47.8125 47.1094C49.2188 48.9844 50.5078 50.2734 51.6797 50.9766C53.7891 52.1484 54.7266 53.5547 54.4922 55.1953C54.2578 57.5391 53.0859 58.0078 50.9766 56.6016C48.6328 54.9609 45.7031 53.6719 42.1875 52.7344C37.9688 51.5625 33.75 50.9766 29.5312 50.9766C20.625 50.9766 14.8828 52.5 12.3047 55.5469C10.8984 57.1875 10.1953 58.9453 10.1953 60.8203C10.1953 63.1641 11.3672 65.5078 13.7109 67.8516C16.9922 71.1328 22.0312 72.8906 28.8281 73.125C34.9219 73.3594 38.5547 73.2422 39.7266 72.7734C41.6016 72.0703 43.125 71.7188 44.2969 71.7188C45.7031 71.7188 46.9922 72.4219 48.1641 73.8281C49.1016 74.7656 48.75 75.5859 47.1094 76.2891C45.4688 76.9922 41.4844 77.3438 35.1562 77.3438C30 77.3438 26.1328 77.1094 23.5547 76.6406C18.6328 75.7031 14.7656 73.9453 11.9531 71.3672C8.4375 68.0859 6.67969 64.6875 6.67969 61.1719C6.67969 58.5938 7.61719 56.25 9.49219 54.1406C12.7734 50.3906 19.1016 48.5156 28.4766 48.5156C34.8047 48.5156 39.9609 48.9844 43.9453 49.9219C41.3672 45 38.7891 39.9609 36.2109 34.8047C30.5859 36.2109 24.1406 37.3828 16.875 38.3203C13.3594 38.7891 10.3125 39.0234 7.73438 39.0234C6.32812 39.0234 5.03906 38.5547 3.86719 37.6172C2.22656 36.2109 0.9375 34.5703 0 32.6953C0 31.5234 0.46875 31.4062 1.40625 32.3438C2.8125 34.2188 4.92188 35.1562 7.73438 35.1562C11.9531 35.1562 15 35.0391 16.875 34.8047C22.0312 34.1016 28.0078 33.0469 34.8047 31.6406C33.1641 28.3594 31.4062 24.4922 29.5312 20.0391C26.9531 20.7422 22.7344 21.5625 16.875 22.5C14.0625 22.9688 11.9531 22.7344 10.5469 21.7969C8.90625 20.8594 7.5 19.4531 6.32812 17.5781C6.09375 15.9375 6.5625 15.7031 7.73438 16.875C8.67188 18.5156 10.8984 19.3359 14.4141 19.3359ZM160.664 58.0078C159.961 58.0078 159.023 57.6562 157.852 56.9531C154.336 55.0781 149.062 52.7344 142.031 49.9219C136.406 64.2188 128.789 73.7109 119.18 78.3984C118.008 78.8672 117.656 78.6328 118.125 77.6953C127.031 70.8984 133.711 61.1719 138.164 48.5156C128.555 45.2344 119.18 43.4766 110.039 43.2422C106.289 51.4453 102.891 57.0703 99.8438 60.1172C97.2656 62.6953 94.4531 63.9844 91.4062 63.9844C89.0625 63.9844 87.3047 63.3984 86.1328 62.2266C84.7266 60.8203 84.0234 58.9453 84.0234 56.6016C84.0234 54.4922 84.9609 52.3828 86.8359 50.2734C91.2891 45.3516 98.0859 42.3047 107.227 41.1328C110.742 33.1641 114.609 23.3203 118.828 11.6016C119.297 10.4297 118.945 9.84375 117.773 9.84375C113.789 11.25 109.922 12.5391 106.172 13.7109C103.594 14.4141 101.836 15.2344 100.898 16.1719C99.4922 17.3438 98.2031 17.2266 97.0312 15.8203C94.2188 12.5391 92.8125 9.96094 92.8125 8.08594C92.5781 6.91406 92.9297 6.67969 93.8672 7.38281C95.2734 10.1953 97.0312 11.6016 99.1406 11.6016C100.312 11.6016 101.836 11.3672 103.711 10.8984C109.102 9.72656 114.492 8.4375 119.883 7.03125L121.289 5.27344C123.867 5.97656 125.742 6.91406 126.914 8.08594C128.086 9.25781 127.617 10.1953 125.508 10.8984C124.336 11.3672 123.164 12.8906 121.992 15.4688C118.477 24.1406 114.844 32.5781 111.094 40.7812C121.406 41.0156 130.781 42.4219 139.219 45C139.922 43.5938 140.742 41.0156 141.68 37.2656C141.914 36.3281 142.148 34.4531 142.383 31.6406C142.617 28.8281 141.328 26.9531 138.516 26.0156C137.109 25.5469 137.109 25.0781 138.516 24.6094C142.266 24.6094 145.898 26.1328 149.414 29.1797C151.055 30.5859 151.055 31.6406 149.414 32.3438C148.008 32.8125 146.953 34.3359 146.25 36.9141C145.078 40.8984 144.023 43.9453 143.086 46.0547C153.398 49.3359 159.258 51.4453 160.664 52.3828C161.836 53.0859 162.422 54.2578 162.422 55.8984C162.422 57.3047 161.836 58.0078 160.664 58.0078ZM106.172 43.5938C98.6719 45.2344 93.2812 47.6953 90 50.9766C88.125 52.8516 87.1875 54.9609 87.1875 57.3047C87.1875 60.3516 88.5938 61.875 91.4062 61.875C93.5156 61.875 95.625 60.8203 97.7344 58.7109C99.6094 56.8359 102.422 51.7969 106.172 43.5938ZM212.695 36.5625C212.695 32.3438 212.344 29.5312 211.641 28.125C210.703 26.25 208.945 25.3125 206.367 25.3125C205.195 25.3125 203.32 25.5469 200.742 26.0156C195.352 38.4375 189.844 50.8594 184.219 63.2812C183.516 64.4531 182.461 66.7969 181.055 70.3125C180.352 72.1875 179.531 73.125 178.594 73.125C177.891 73.125 177.305 72.5391 176.836 71.3672C176.602 70.8984 176.484 69.9609 176.484 68.5547C176.484 66.4453 177.188 64.6875 178.594 63.2812C180 61.875 181.641 59.2969 183.516 55.5469C188.672 45.4688 193.242 35.8594 197.227 26.7188C190.898 27.8906 186.445 29.0625 183.867 30.2344C182.461 30.9375 181.172 30.8203 180 29.8828C177.656 28.2422 176.484 25.7813 176.484 22.5C176.719 21.7969 177.07 21.7969 177.539 22.5C178.945 25.0781 180.82 26.3672 183.164 26.3672C185.039 26.3672 190.078 25.6641 198.281 24.2578C199.453 21.6797 200.625 18.9844 201.797 16.1719C202.969 12.8906 202.852 10.4297 201.445 8.78906C200.273 7.38281 198.398 6.5625 195.82 6.32812C194.883 5.85937 194.883 5.39063 195.82 4.92188C198.164 4.92188 199.805 5.03906 200.742 5.27344C203.32 5.97656 205.547 7.26562 207.422 9.14062C209.531 11.25 209.414 12.5391 207.07 13.0078C205.43 16.7578 203.672 20.3906 201.797 23.9062C203.672 23.4375 205.195 23.2031 206.367 23.2031C209.414 23.2031 211.641 24.0234 213.047 25.6641C215.156 28.2422 216.211 32.5781 216.211 38.6719C216.211 56.7188 211.875 67.9688 203.203 72.4219C200.859 73.5938 199.688 73.125 199.688 71.0156C199.688 69.375 199.219 68.2031 198.281 67.5C195.938 65.8594 193.594 64.1016 191.25 62.2266C190.781 61.2891 191.016 60.9375 191.953 61.1719C194.766 62.8125 197.461 64.2188 200.039 65.3906C202.383 66.5625 204.492 65.8594 206.367 63.2812C208.477 60.2344 210 56.4844 210.938 52.0312C212.109 46.4062 212.695 41.25 212.695 36.5625ZM246.445 13.7109C245.039 14.1797 243.984 13.5937 243.281 11.9531C241.641 8.20313 238.594 4.92188 234.141 2.10938C233.672 1.40625 233.789 1.17188 234.492 1.40625C238.477 2.10938 241.992 3.63281 245.039 5.97656C246.445 7.14844 247.383 8.55469 247.852 10.1953C248.32 12.0703 247.852 13.2422 246.445 13.7109ZM225 24.6094C223.828 23.6719 224.062 23.3203 225.703 23.5547C229.688 25.1953 233.906 27.7734 238.359 31.2891C244.219 35.9766 247.5 41.7188 248.203 48.5156C248.438 50.8594 248.086 52.6172 247.148 53.7891C245.742 55.6641 244.336 55.5469 242.93 53.4375C241.523 51.0938 239.766 50.0391 237.656 50.2734C234.375 50.5078 230.977 50.7422 227.461 50.9766C226.055 50.7422 225.938 50.2734 227.109 49.5703C230.859 49.1016 234.844 48.5156 239.062 47.8125C240.703 47.5781 241.406 46.875 241.172 45.7031C240.703 41.9531 238.945 38.0859 235.898 34.1016C233.086 30.3516 229.453 27.1875 225 24.6094ZM238.711 16.1719C239.18 18.0469 238.711 19.2187 237.305 19.6875C235.898 20.1563 234.844 19.5703 234.141 17.9297C232.5 14.1797 229.453 10.8984 225 8.08594C224.531 7.38281 224.648 7.14844 225.352 7.38281C229.336 8.08594 232.852 9.60938 235.898 11.9531C237.305 13.125 238.242 14.5313 238.711 16.1719ZM723.516 16.5234C728.438 19.1016 732.305 21.9141 735.117 24.9609C741.914 32.4609 745.312 39.8438 745.312 47.1094C745.312 49.6875 744.258 50.9766 742.148 50.9766C740.508 50.9766 739.57 50.0391 739.336 48.1641C738.633 42.0703 736.875 36.4453 734.062 31.2891C731.484 26.3672 727.734 21.7969 722.812 17.5781C722.109 16.875 722.344 16.5234 723.516 16.5234ZM675.352 41.4844C675.352 35.1562 675.352 28.8281 675.352 22.5C675.352 17.1094 673.711 13.7109 670.43 12.3047C669.492 11.8359 669.609 11.4844 670.781 11.25C673.594 11.4844 676.406 12.7734 679.219 15.1172C681.562 16.9922 681.914 18.8672 680.273 20.7422C679.57 26.8359 679.219 31.875 679.219 35.8594C679.219 46.6406 680.508 54.1406 683.086 58.3594C684.492 60.4688 685.781 60.4688 686.953 58.3594C690.938 51.5625 695.273 44.1797 699.961 36.2109C700.898 35.0391 701.367 35.2734 701.367 36.9141C697.852 44.4141 694.688 51.3281 691.875 57.6562C690.234 60.9375 689.766 63.6328 690.469 65.7422C691.406 68.7891 690.586 69.8438 688.008 68.9062C684.023 67.5 680.742 63.75 678.164 57.6562C676.289 53.2031 675.352 47.8125 675.352 41.4844ZM830.391 35.8594C828.047 33.5156 825.469 32.3438 822.656 32.3438C817.969 32.3438 814.102 33.3984 811.055 35.5078C809.414 36.6797 808.711 38.6719 808.945 41.4844C809.414 48.2812 810 54.375 810.703 59.7656C820.781 62.1094 827.109 64.2188 829.688 66.0938C830.625 66.7969 830.977 68.3203 830.742 70.6641C830.508 72.7734 829.336 73.125 827.227 71.7188C820.43 67.5 815.039 64.6875 811.055 63.2812C811.055 68.2031 809.648 71.7188 806.836 73.8281C804.727 75.4688 801.797 76.2891 798.047 76.2891C794.062 76.2891 791.016 75.2344 788.906 73.125C787.266 71.4844 786.445 69.6094 786.445 67.5C786.445 64.6875 787.617 62.4609 789.961 60.8203C792.07 59.4141 795.352 58.7109 799.805 58.7109C801.914 58.7109 804.141 58.8281 806.484 59.0625C805.547 50.625 805.078 44.8828 805.078 41.8359C805.078 37.3828 807.07 34.3359 811.055 32.6953C815.039 31.0547 818.789 30.2344 822.305 30.2344C824.414 30.2344 825 29.5312 824.062 28.125C821.016 23.6719 815.742 19.9219 808.242 16.875C807.305 16.4062 807.422 16.0547 808.594 15.8203C817.266 17.2266 824.414 20.7422 830.039 26.3672C832.617 28.9453 833.906 31.4062 833.906 33.75C833.906 35.625 833.32 36.5625 832.148 36.5625C831.445 36.5625 830.859 36.3281 830.391 35.8594ZM797.695 20.7422C793.711 21.6797 789.492 22.6172 785.039 23.5547C775.898 44.4141 770.273 56.6016 768.164 60.1172C766.758 62.4609 765.469 63.0469 764.297 61.875C763.594 61.1719 763.125 60.2344 762.891 59.0625C762.656 57.1875 763.242 55.5469 764.648 54.1406C766.289 52.5 767.812 50.5078 769.219 48.1641C772.266 43.0078 776.25 35.0391 781.172 24.2578C778.125 24.7266 775.078 25.4297 772.031 26.3672C770.391 27.3047 769.102 27.3047 768.164 26.3672C765.117 23.3203 763.711 21.0938 763.945 19.6875C763.945 18.5156 764.414 18.5156 765.352 19.6875C766.289 21.5625 768.281 22.5 771.328 22.5C775.312 22.5 778.945 22.0312 782.227 21.0938C785.039 14.2969 786.562 9.375 786.797 6.32812C787.031 3.98438 785.508 2.46094 782.227 1.75781C781.055 1.28906 781.055 0.820313 782.227 0.351562C784.336 0.117188 786.445 0.46875 788.555 1.40625C790.195 2.10938 791.602 3.04687 792.773 4.21875C794.18 5.625 794.062 6.79688 792.422 7.73438C791.25 8.4375 789.141 12.6562 786.094 20.3906C789.375 19.6875 792.305 18.3984 794.883 16.5234C796.523 15.3516 797.93 15.7031 799.102 17.5781C800.039 19.2187 799.57 20.2734 797.695 20.7422ZM806.484 62.2266C803.906 61.2891 801.328 60.8203 798.75 60.8203C795.469 60.8203 793.008 61.4062 791.367 62.5781C789.727 63.75 788.906 65.2734 788.906 67.1484C788.906 68.5547 789.375 69.8438 790.312 71.0156C791.953 72.8906 794.531 73.8281 798.047 73.8281C800.391 73.8281 802.031 73.4766 802.969 72.7734C805.547 70.8984 806.719 67.3828 806.484 62.2266ZM869.414 19.3359C872.461 19.3359 877.148 18.6328 883.477 17.2266C881.367 11.3672 879.844 7.73438 878.906 6.32812C877.969 4.92188 875.977 4.21875 872.93 4.21875C872.227 4.21875 872.109 3.86719 872.578 3.16406C875.859 1.99219 878.32 1.75781 879.961 2.46094C880.664 2.69531 881.836 3.39844 883.477 4.57031C884.883 5.50781 885.352 6.67969 884.883 8.08594C885.117 10.4297 885.82 13.2422 886.992 16.5234C890.273 15.5859 892.617 14.5313 894.023 13.3594C894.961 12.1875 895.781 11.6016 896.484 11.6016C897.422 11.6016 898.242 11.8359 898.945 12.3047C899.648 12.5391 900.352 12.8906 901.055 13.3594C902.227 14.0625 902.109 14.7656 900.703 15.4688C898.828 16.4062 894.609 17.6953 888.047 19.3359C889.688 23.5547 891.328 27.3047 892.969 30.5859C896.719 29.6484 900.352 28.4766 903.867 27.0703C906.211 26.1328 907.852 25.0781 908.789 23.9062C909.492 22.9688 910.547 22.7344 911.953 23.2031C914.062 24.1406 915.234 24.7266 915.469 24.9609C916.406 25.8984 916.172 26.7188 914.766 27.4219C911.953 28.5938 909.727 29.4141 908.086 29.8828C903.633 31.2891 899.18 32.5781 894.727 33.75C898.711 40.7812 901.406 45.2344 902.812 47.1094C904.219 48.9844 905.508 50.2734 906.68 50.9766C908.789 52.1484 909.727 53.5547 909.492 55.1953C909.258 57.5391 908.086 58.0078 905.977 56.6016C903.633 54.9609 900.703 53.6719 897.188 52.7344C892.969 51.5625 888.75 50.9766 884.531 50.9766C875.625 50.9766 869.883 52.5 867.305 55.5469C865.898 57.1875 865.195 58.9453 865.195 60.8203C865.195 63.1641 866.367 65.5078 868.711 67.8516C871.992 71.1328 877.031 72.8906 883.828 73.125C889.922 73.3594 893.555 73.2422 894.727 72.7734C896.602 72.0703 898.125 71.7188 899.297 71.7188C900.703 71.7188 901.992 72.4219 903.164 73.8281C904.102 74.7656 903.75 75.5859 902.109 76.2891C900.469 76.9922 896.484 77.3438 890.156 77.3438C885 77.3438 881.133 77.1094 878.555 76.6406C873.633 75.7031 869.766 73.9453 866.953 71.3672C863.438 68.0859 861.68 64.6875 861.68 61.1719C861.68 58.5938 862.617 56.25 864.492 54.1406C867.773 50.3906 874.102 48.5156 883.477 48.5156C889.805 48.5156 894.961 48.9844 898.945 49.9219C896.367 45 893.789 39.9609 891.211 34.8047C885.586 36.2109 879.141 37.3828 871.875 38.3203C868.359 38.7891 865.312 39.0234 862.734 39.0234C861.328 39.0234 860.039 38.5547 858.867 37.6172C857.227 36.2109 855.938 34.5703 855 32.6953C855 31.5234 855.469 31.4062 856.406 32.3438C857.812 34.2188 859.922 35.1562 862.734 35.1562C866.953 35.1562 870 35.0391 871.875 34.8047C877.031 34.1016 883.008 33.0469 889.805 31.6406C888.164 28.3594 886.406 24.4922 884.531 20.0391C881.953 20.7422 877.734 21.5625 871.875 22.5C869.062 22.9688 866.953 22.7344 865.547 21.7969C863.906 20.8594 862.5 19.4531 861.328 17.5781C861.094 15.9375 861.562 15.7031 862.734 16.875C863.672 18.5156 865.898 19.3359 869.414 19.3359ZM993.516 33.3984C986.719 33.3984 978.047 36.3281 967.5 42.1875C973.125 52.2656 978.75 62.3438 984.375 72.4219C985.312 73.125 985.781 74.0625 985.781 75.2344C985.781 76.4062 985.547 77.5781 985.078 78.75C984.375 80.1562 983.438 80.2734 982.266 79.1016C981.797 78.6328 981.094 77.2266 980.156 74.8828C978.516 70.8984 973.359 60.5859 964.688 43.9453C958.125 48.1641 953.906 51.4453 952.031 53.7891C951.094 55.1953 950.391 55.8984 949.922 55.8984C949.219 55.8984 948.516 55.6641 947.812 55.1953C944.766 53.0859 943.359 50.7422 943.594 48.1641C944.062 46.0547 944.648 45.9375 945.352 47.8125C945.82 49.4531 946.875 50.2734 948.516 50.2734C949.922 50.2734 954.844 47.4609 963.281 41.8359C960.234 36.2109 958.242 32.9297 957.305 31.9922C956.367 31.5234 955.898 30.9375 955.898 30.2344C955.898 29.7656 956.602 28.8281 958.008 27.4219C960.117 25.3125 963.633 24.2578 968.555 24.2578C971.836 24.2578 974.883 24.6094 977.695 25.3125C978.633 25.5469 978.867 25.1953 978.398 24.2578C975.352 21.2109 973.711 18.1641 973.477 15.1172C973.711 13.7109 974.062 13.7109 974.531 15.1172C976.641 18.8672 978.984 21.4453 981.562 22.8516C983.906 24.2578 984.961 26.25 984.727 28.8281C984.492 30.9375 983.32 31.4062 981.211 30.2344C976.523 27.6562 972.188 26.3672 968.203 26.3672C964.453 26.3672 962.227 27.6562 961.523 30.2344C961.289 30.9375 962.812 34.1016 966.094 39.7266C977.109 33.8672 986.367 30.9375 993.867 30.9375C999.961 30.9375 1004.41 32.3438 1007.23 35.1562C1009.1 37.0312 1010.04 39.6094 1010.04 42.8906C1010.04 45.7031 1009.22 47.9297 1007.58 49.5703C1004.77 52.3828 1000.43 53.7891 994.57 53.7891C989.18 53.7891 984.609 52.3828 980.859 49.5703C979.688 48.6328 979.922 48.2812 981.562 48.5156C985.547 50.3906 989.297 51.3281 992.812 51.3281C997.734 51.3281 1001.37 50.1562 1003.71 47.8125C1004.88 46.6406 1005.47 44.8828 1005.47 42.5391C1005.47 40.1953 1004.77 38.3203 1003.36 36.9141C1001.02 34.5703 997.734 33.3984 993.516 33.3984Z" fill="black"/>
</svg>
