<svg width="687" height="90" viewBox="0 0 687 90" fill="none" xmlns="http://www.w3.org/2000/svg">
<path d="M43.75 16.4062C43.75 18.4896 43.75 20.5729 43.75 22.6562C49.7396 22.1354 54.8177 21.3542 58.9844 20.3125C61.3281 19.7917 63.151 19.0104 64.4531 17.9688C65.7552 16.9271 66.9271 16.7969 67.9688 17.5781C69.5312 18.6198 70.5729 19.401 71.0938 19.9219C72.3958 21.224 72.0052 22.1354 69.9219 22.6562C62.3698 24.4792 53.6458 25.7812 43.75 26.5625C43.75 32.2917 43.75 38.0208 43.75 43.75C48.9583 43.2292 52.9948 42.7083 55.8594 42.1875C59.5052 41.6667 61.849 41.0156 62.8906 40.2344C64.1927 39.4531 65.3646 39.4531 66.4062 40.2344C67.7083 41.0156 68.75 41.6667 69.5312 42.1875C70.5729 42.9688 70.3125 43.75 68.75 44.5312C67.9688 45.0521 65.8854 45.4427 62.5 45.7031C55.7292 46.4844 49.4792 47.0052 43.75 47.2656C43.75 53.5156 43.75 59.6354 43.75 65.625C53.9062 67.7083 62.8906 70.5729 70.7031 74.2188C73.0469 75.2604 74.2188 77.0833 74.2188 79.6875C74.2188 80.7292 73.6979 81.3802 72.6562 81.6406C71.875 81.901 70.7031 81.5104 69.1406 80.4688C60.5469 75.2604 52.0833 71.6146 43.75 69.5312C44.0104 73.9583 43.099 77.3438 41.0156 79.6875C38.151 82.8125 33.2031 84.375 26.1719 84.375C19.9219 84.375 15.2344 82.8125 12.1094 79.6875C10.5469 78.125 9.76562 76.3021 9.76562 74.2188C9.76562 71.875 10.8073 69.9219 12.8906 68.3594C16.276 65.7552 22.0052 64.4531 30.0781 64.4531C31.901 64.4531 35.026 64.5833 39.4531 64.8438C39.4531 59.1146 39.4531 53.3854 39.4531 47.6562C35.5469 47.9167 31.5104 48.0469 27.3438 48.0469C22.9167 48.0469 19.6615 47.3958 17.5781 46.0938C14.7135 44.2708 13.4115 40.625 13.6719 35.1562C14.1927 34.1146 14.8438 34.1146 15.625 35.1562C15.625 38.8021 16.276 41.276 17.5781 42.5781C19.1406 44.1406 22.3958 44.9219 27.3438 44.9219C31.7708 44.9219 35.8073 44.6615 39.4531 44.1406C39.4531 38.4115 39.4531 32.6823 39.4531 26.9531C34.5052 27.474 28.776 27.7344 22.2656 27.7344C17.5781 27.7344 13.8021 27.3438 10.9375 26.5625C7.03125 25.5208 3.77604 23.4375 1.17188 20.3125C0.390625 18.75 0.78125 18.3594 2.34375 19.1406C4.94792 21.4844 7.68229 23.0469 10.5469 23.8281C12.3698 24.349 16.6667 24.6094 23.4375 24.6094C28.6458 24.6094 33.9844 24.2188 39.4531 23.4375C39.4531 21.3542 39.4531 19.1406 39.4531 16.7969C39.4531 12.3698 39.0625 9.63542 38.2812 8.59375C36.9792 6.77083 34.7656 5.85938 31.6406 5.85938C29.8177 6.11979 29.6875 5.59896 31.25 4.29688C32.5521 3.77604 34.2448 3.51562 36.3281 3.51562C38.9323 3.51562 42.0573 4.55729 45.7031 6.64062C47.526 7.68229 47.526 8.98438 45.7031 10.5469C44.401 11.5885 43.75 13.5417 43.75 16.4062ZM39.0625 68.3594C33.3333 67.5781 29.5573 67.1875 27.7344 67.1875C22.7865 67.1875 19.0104 67.8385 16.4062 69.1406C13.8021 70.4427 12.5 72.2656 12.5 74.6094C12.5 76.6927 13.8021 78.3854 16.4062 79.6875C19.0104 80.9896 22.0052 81.6406 25.3906 81.6406C30.0781 81.6406 33.724 80.4688 36.3281 78.125C38.4115 76.3021 39.3229 73.0469 39.0625 68.3594ZM115.234 83.9844C115.234 80.8594 111.719 75.651 104.688 68.3594C102.083 72.7865 100 76.3021 98.4375 78.9062C97.9167 79.6875 97.2656 80.0781 96.4844 80.0781C95.4427 80.0781 94.9219 78.6458 94.9219 75.7812C94.9219 74.2188 95.4427 72.7865 96.4844 71.4844C102.474 64.1927 109.375 53.6458 117.188 39.8438C117.188 37.7604 117.188 35.6771 117.188 33.5938C113.542 34.8958 110.417 36.1979 107.812 37.5C106.771 38.2812 105.859 38.6719 105.078 38.6719C104.557 38.6719 103.516 38.151 101.953 37.1094C99.0885 35.2865 97.6562 32.9427 97.6562 30.0781C97.9167 28.776 98.3073 28.5156 98.8281 29.2969C100.13 32.1615 101.953 33.5938 104.297 33.5938C107.422 33.5938 111.719 32.6823 117.188 30.8594C117.188 25.9115 117.188 20.8333 117.188 15.625C117.188 9.89583 114.714 6.77083 109.766 6.25C107.682 6.25 107.682 5.72917 109.766 4.6875C116.016 4.16667 120.443 5.46875 123.047 8.59375C124.609 9.63542 124.609 10.8073 123.047 12.1094C121.484 14.7135 120.703 20.7031 120.703 30.0781C121.224 29.8177 121.745 29.4271 122.266 28.9062C123.828 29.6875 124.87 30.3385 125.391 30.8594C126.432 31.3802 126.562 32.0312 125.781 32.8125C124.479 34.1146 122.786 36.1979 120.703 39.0625C120.703 40.1042 120.703 41.1458 120.703 42.1875C133.464 28.3854 144.141 21.4844 152.734 21.4844C159.245 21.4844 162.24 24.349 161.719 30.0781C160.156 47.2656 159.375 57.8125 159.375 61.7188C159.375 71.0938 161.328 75.7812 165.234 75.7812C172.786 75.7812 179.167 69.401 184.375 56.6406C185.417 55.0781 185.938 55.2083 185.938 57.0312C181.771 72.1354 174.87 79.6875 165.234 79.6875C162.109 79.6875 159.505 78.6458 157.422 76.5625C155.339 74.4792 154.297 69.9219 154.297 62.8906C154.297 54.2969 154.818 43.2292 155.859 29.6875C156.12 26.3021 154.688 24.6094 151.562 24.6094C144.531 24.6094 134.245 31.7708 120.703 46.0938C120.964 65.1042 121.224 75.5208 121.484 77.3438C122.005 80.9896 121.354 83.724 119.531 85.5469C118.49 86.5885 117.578 87.1094 116.797 87.1094C115.755 87.1094 115.234 86.0677 115.234 83.9844ZM116.797 73.8281C117.318 67.5781 117.448 59.375 117.188 49.2188C113.281 54.9479 109.375 60.8073 105.469 66.7969C108.594 69.401 111.589 71.875 114.453 74.2188C115.495 75.2604 116.276 75.1302 116.797 73.8281ZM276.562 41.0156C273.958 38.4115 271.094 37.1094 267.969 37.1094C262.76 37.1094 258.464 38.2812 255.078 40.625C253.255 41.9271 252.474 44.1406 252.734 47.2656C253.255 54.8177 253.906 61.5885 254.688 67.5781C265.885 70.1823 272.917 72.526 275.781 74.6094C276.823 75.3906 277.214 77.0833 276.953 79.6875C276.693 82.0312 275.391 82.4219 273.047 80.8594C265.495 76.1719 259.505 73.0469 255.078 71.4844C255.078 76.9531 253.516 80.8594 250.391 83.2031C248.047 85.026 244.792 85.9375 240.625 85.9375C236.198 85.9375 232.812 84.7656 230.469 82.4219C228.646 80.599 227.734 78.5156 227.734 76.1719C227.734 73.0469 229.036 70.5729 231.641 68.75C233.984 67.1875 237.63 66.4062 242.578 66.4062C244.922 66.4062 247.396 66.5365 250 66.7969C248.958 57.4219 248.438 51.0417 248.438 47.6562C248.438 42.7083 250.651 39.3229 255.078 37.5C259.505 35.6771 263.672 34.7656 267.578 34.7656C269.922 34.7656 270.573 33.9844 269.531 32.4219C266.146 27.474 260.286 23.3073 251.953 19.9219C250.911 19.401 251.042 19.0104 252.344 18.75C261.979 20.3125 269.922 24.2188 276.172 30.4688C279.036 33.3333 280.469 36.0677 280.469 38.6719C280.469 40.7552 279.818 41.7969 278.516 41.7969C277.734 41.7969 277.083 41.5365 276.562 41.0156ZM240.234 24.2188C235.807 25.2604 231.12 26.3021 226.172 27.3438C216.016 50.5208 209.766 64.0625 207.422 67.9688C205.859 70.5729 204.427 71.224 203.125 69.9219C202.344 69.1406 201.823 68.099 201.562 66.7969C201.302 64.7135 201.953 62.8906 203.516 61.3281C205.339 59.5052 207.031 57.2917 208.594 54.6875C211.979 48.9583 216.406 40.1042 221.875 28.125C218.49 28.6458 215.104 29.4271 211.719 30.4688C209.896 31.5104 208.464 31.5104 207.422 30.4688C204.036 27.0833 202.474 24.6094 202.734 23.0469C202.734 21.7448 203.255 21.7448 204.297 23.0469C205.339 25.1302 207.552 26.1719 210.938 26.1719C215.365 26.1719 219.401 25.651 223.047 24.6094C226.172 17.0573 227.865 11.5885 228.125 8.20312C228.385 5.59896 226.693 3.90625 223.047 3.125C221.745 2.60417 221.745 2.08333 223.047 1.5625C225.391 1.30208 227.734 1.69271 230.078 2.73438C231.901 3.51562 233.464 4.55729 234.766 5.85938C236.328 7.42188 236.198 8.72396 234.375 9.76562C233.073 10.5469 230.729 15.2344 227.344 23.8281C230.99 23.0469 234.245 21.6146 237.109 19.5312C238.932 18.2292 240.495 18.6198 241.797 20.7031C242.839 22.526 242.318 23.6979 240.234 24.2188ZM250 70.3125C247.135 69.2708 244.271 68.75 241.406 68.75C237.76 68.75 235.026 69.401 233.203 70.7031C231.38 72.0052 230.469 73.6979 230.469 75.7812C230.469 77.3438 230.99 78.776 232.031 80.0781C233.854 82.1615 236.719 83.2031 240.625 83.2031C243.229 83.2031 245.052 82.8125 246.094 82.0312C248.958 79.9479 250.26 76.0417 250 70.3125ZM412.5 48.4375C419.271 44.0104 424.609 40.8854 428.516 39.0625C435.286 35.9375 441.927 34.375 448.438 34.375C455.729 34.375 461.979 36.5885 467.188 41.0156C471.094 44.401 473.047 48.9583 473.047 54.6875C473.047 59.1146 471.745 62.7604 469.141 65.625C462.37 73.1771 449.74 77.2135 431.25 77.7344C429.688 76.9531 429.688 76.3021 431.25 75.7812C447.396 73.9583 458.203 70.0521 463.672 64.0625C466.536 60.9375 467.969 57.2917 467.969 53.125C467.969 49.4792 466.927 46.4844 464.844 44.1406C460.677 39.7135 455.208 37.5 448.438 37.5C439.844 37.5 429.688 41.9271 417.969 50.7812C415.885 52.3438 414.323 53.776 413.281 55.0781C411.979 56.6406 410.286 56.5104 408.203 54.6875C404.297 51.3021 402.474 49.2188 402.734 48.4375C402.995 47.1354 403.385 46.875 403.906 47.6562C405.208 49.2188 406.641 50 408.203 50C409.505 50 410.938 49.4792 412.5 48.4375ZM545.312 23.4375C539.583 24.7396 532.943 26.0417 525.391 27.3438C519.922 46.0938 514.453 64.5833 508.984 82.8125C508.464 84.375 507.552 84.7656 506.25 83.9844C505.469 83.4635 504.948 82.5521 504.688 81.25C503.906 78.3854 503.906 76.4323 504.688 75.3906C506.25 72.7865 507.682 69.7917 508.984 66.4062C513.411 53.9062 517.578 41.1458 521.484 28.125C515.234 28.9062 510.547 29.5573 507.422 30.0781C505.859 30.8594 504.557 30.7292 503.516 29.6875C502.734 28.9062 501.823 27.8646 500.781 26.5625C500 25.5208 499.609 24.349 499.609 23.0469C499.87 21.7448 500.26 21.4844 500.781 22.2656C502.604 24.8698 505.208 26.1719 508.594 26.1719C513.281 26.1719 517.839 25.7812 522.266 25C524.609 19.0104 525.911 14.3229 526.172 10.9375C526.172 9.63542 525.781 8.59375 525 7.8125C523.698 6.77083 522.135 6.11979 520.312 5.85938C518.49 5.85938 518.359 5.33854 519.922 4.29688C521.224 4.03646 522.656 3.90625 524.219 3.90625C526.302 3.90625 529.167 5.20833 532.812 7.8125C534.635 9.11458 534.635 10.2865 532.812 11.3281C531.51 12.1094 529.427 16.4062 526.562 24.2188C531.771 23.1771 536.589 21.3542 541.016 18.75C541.797 17.9688 542.708 17.5781 543.75 17.5781C544.792 17.5781 545.964 18.3594 547.266 19.9219C548.568 21.7448 547.917 22.9167 545.312 23.4375ZM534.375 37.8906C539.583 34.7656 545.443 32.5521 551.953 31.25C558.464 29.9479 564.062 29.5573 568.75 30.0781C571.354 30.3385 572.656 31.3802 572.656 33.2031C572.656 34.7656 571.615 35.5469 569.531 35.5469C560.417 35.5469 552.344 38.5417 545.312 44.5312C544.01 45.3125 543.75 45.0521 544.531 43.75C546.615 41.1458 550.26 38.5417 555.469 35.9375C557.552 34.8958 557.292 34.375 554.688 34.375C550 34.375 543.49 35.9375 535.156 39.0625C533.854 39.5833 533.594 39.1927 534.375 37.8906ZM534.766 60.1562C535.807 58.0729 536.328 58.0729 536.328 60.1562C536.068 62.2396 535.938 63.6719 535.938 64.4531C535.938 67.5781 537.109 70.3125 539.453 72.6562C542.318 75.5208 546.875 76.9531 553.125 76.9531C557.031 76.9531 560.938 76.9531 564.844 76.9531C569.01 76.9531 571.745 76.5625 573.047 75.7812C574.87 74.7396 576.302 74.6094 577.344 75.3906C579.167 76.6927 580.208 77.6042 580.469 78.125C581.51 80.2083 580.469 81.25 577.344 81.25C570.833 81.25 564.323 81.25 557.812 81.25C547.917 81.25 541.276 79.5573 537.891 76.1719C535.286 73.5677 533.984 70.1823 533.984 66.0156C533.984 63.6719 534.245 61.7188 534.766 60.1562ZM596.875 89.0625C595.573 89.0625 595.443 88.5417 596.484 87.5C604.818 83.5938 612.63 77.6042 619.922 69.5312L625.781 73.8281C627.865 75.3906 626.823 76.0417 622.656 75.7812C614.062 82.0312 605.469 86.4583 596.875 89.0625ZM673.047 83.9844C669.401 80.3385 663.411 76.1719 655.078 71.4844C654.036 70.4427 654.167 69.9219 655.469 69.9219C672.656 74.349 681.25 79.1667 681.25 84.375C681.25 86.9792 680.599 88.2812 679.297 88.2812C677.995 88.2812 675.911 86.849 673.047 83.9844ZM657.422 3.125L659.766 0L665.234 3.90625C666.797 5.20833 666.276 6.11979 663.672 6.64062V29.6875C660.286 32.8125 658.594 32.9427 658.594 30.0781V26.9531H641.797V37.1094H673.047L678.125 32.0312L684.375 36.7188C685.938 38.0208 685.938 38.9323 684.375 39.4531H595.703V37.1094H636.719V26.9531H619.141V29.6875C615.755 32.8125 614.062 32.9427 614.062 30.0781V0L619.922 3.125H657.422ZM619.141 5.46875V14.0625H658.594V5.46875H619.141ZM621.484 49.6094V61.3281H658.594V49.6094H621.484ZM621.484 63.6719V66.0156C618.099 69.1406 616.406 69.2708 616.406 66.4062V44.1406L622.266 47.2656H657.422L659.766 44.1406L665.234 48.0469C666.797 49.349 666.276 50.2604 663.672 50.7812V66.0156C660.286 69.1406 658.594 69.2708 658.594 66.4062V63.6719H643.75V80.8594C643.75 83.4635 642.839 85.6771 641.016 87.5C639.974 88.5417 638.672 89.0625 637.109 89.0625C636.068 89.0625 635.547 88.5417 635.547 87.5C635.547 86.1979 634.766 85.2865 633.203 84.7656L628.125 83.5938C627.083 83.0729 627.083 82.5521 628.125 82.0312H635.938C637.76 82.0312 638.672 81.1198 638.672 79.2969V63.6719H621.484ZM619.141 16.4062V24.6094H658.594V16.4062H619.141Z" fill="white"/>
</svg>
