<svg width="263" height="46" viewBox="0 0 263 46" fill="none" xmlns="http://www.w3.org/2000/svg">
<path d="M1.3 32.9L2.5332e-07 26.75C6.8 23.15 9.85 17.6 9.85 11.8H2.5332e-07V6.39995H4.9V0.99995H10.3V6.39995H15.25V11.8C15.25 14.95 14.4 18.85 12.15 22.7L12.65 23.25L14.55 21.5999L17.3 24.75L15.5 26.3L17.3 28.2L13.35 31.9L11.2 29.6V41H5.8V29.95C4.45 31 2.95 32 1.3 32.9ZM16.25 0.99995H33.5V32.25C33.5 38.45 30.8 41 25.3 41V35.6C27.15 35.6 28.1 34.85 28.1 32.25V6.39995H24.45C24.45 30.55 23.75 34.85 19.1 41.05L14.4 38.45C18.6 32.05 19.05 29.4 19.05 6.39995H16.25V0.99995ZM67.4902 14.15H73.4902V19.55H39.9902V14.15H45.9902V9.09995H51.3902V14.15H62.0902V8.09995H40.9902V2.69995H54.0402V-4.92334e-05H59.4402V2.69995H72.4902V8.09995H67.4902V14.15ZM41.4902 21.55H71.9902V41H41.4902V21.55ZM46.8902 29.75H66.5902V26.95H46.8902V29.75ZM46.8902 35.6H66.5902V32.85H46.8902V35.6ZM87.0305 10.15L88.2805 4.89995L105.48 8.94995L104.23 14.1999L87.0305 10.15ZM103.53 27.15L87.7305 23.4499L88.9805 18.1499L104.78 21.9L103.53 27.15ZM106.68 41L84.5805 35.8L85.8305 30.55L107.93 35.75L106.68 41ZM140.594 11.8H133.944C133.044 16.3999 131.394 20.5 128.744 23.9L124.344 20.75C127.894 16.1 129.244 10.45 129.244 3.69995H134.644C134.644 4.59995 134.594 5.49995 134.544 6.39995H145.994V21C145.994 33.05 139.494 38.85 132.294 41L129.994 36.1C136.994 33.75 140.594 29.65 140.594 21V11.8Z" fill="white"/>
<path d="M181.358 11.4999L183.908 16.25C165.208 26.8 172.008 40 183.908 34.25L185.158 39.5C169.858 45.65 161.108 31.9 171.508 19.3999L165.858 3.69995H171.608L175.758 15.2499C177.408 13.9499 179.258 12.7 181.358 11.4999ZM216.871 3.69995H222.271V9.09995H228.371V14.5H222.271V27.55H227.271V32.95H222.271C222.271 35.9 221.721 41 215.571 41C210.571 41 208.821 37.7 208.821 34.7C208.821 31.55 210.971 27.55 216.871 27.55V14.5H208.121V9.09995H216.871V3.69995ZM205.171 32.4V37.8C198.571 37.8 198.171 34.95 198.171 27.5V9.09995H203.571V26.7C203.571 31.4 203.571 32.4 205.171 32.4ZM215.521 35.8C217.021 35.8 217.121 34.6 217.121 32.7C214.971 32.7 214.021 33.25 214.021 34.4C214.021 35.05 214.421 35.8 215.521 35.8ZM256.785 11.4499C256.785 7.89995 254.735 6.39995 252.235 6.39995C249.785 6.39995 247.735 7.89995 247.735 11.4499V13.25H242.335V11.4499C242.335 4.09995 247.285 0.99995 252.235 0.99995C257.235 0.99995 262.185 4.09995 262.185 11.4499C262.185 20 254.935 18.3 254.935 29.45H249.535C249.535 17.4 256.785 17.5499 256.785 11.4499ZM249.535 34.5H254.935V41H249.535V34.5Z" fill="white"/>
</svg>
