<svg width="64" height="80" viewBox="0 0 64 80" fill="none" xmlns="http://www.w3.org/2000/svg">
<path d="M58.8977 35.4319C58.7589 35.4319 58.6201 35.4278 58.4826 35.4224V4.26329L56.9233 3.78854C48.6585 1.27412 40.1188 0 31.5399 0C22.9611 0 14.4213 1.27412 6.15659 3.78854L4.59726 4.26329V35.4224C4.45975 35.4278 4.32097 35.4319 4.18219 35.4319C2.71496 35.4319 1.2944 35.0856 0 34.4391V38.1979C1.33098 38.6753 2.74019 38.9269 4.18219 38.9269C6.25878 38.9269 8.24958 38.421 10.0991 37.4215C12.134 36.3218 14.468 36.3218 16.503 37.4215C18.3525 38.4197 20.3433 38.9269 22.4198 38.9269C24.4964 38.9269 26.4872 38.421 28.3367 37.4215C30.3717 36.3218 32.7056 36.3218 34.7406 37.4215C36.5901 38.4197 38.5809 38.9269 40.6575 38.9269C42.7341 38.9269 44.7249 38.421 46.5744 37.4215C48.6093 36.3218 50.9433 36.3232 52.9782 37.4215C54.8277 38.4197 56.8185 38.9269 58.8951 38.9269C60.3384 38.9269 61.7463 38.6753 63.0773 38.1979V34.4391C61.7829 35.0856 60.3624 35.4319 58.8951 35.4319H58.8977ZM43.9654 23.3169L54.1932 12.3516V22.3349L45.719 26.1005C45.2182 25.1104 44.6303 24.1785 43.9654 23.3169ZM17.3571 26.11L8.88795 22.3471V12.4057L19.093 23.3467C18.4357 24.2028 17.8529 25.128 17.3571 26.1113V26.11ZM21.4068 20.885L9.10368 7.69476C12.2564 6.81018 15.452 6.11496 18.6716 5.60774L23.8846 19.1091C23.0065 19.619 22.1776 20.2155 21.4068 20.885ZM26.8935 17.7646L22.0237 5.15058C24.6352 4.8476 27.2581 4.66906 29.886 4.61631V17.1222C28.8565 17.2358 27.8573 17.4535 26.8935 17.7646ZM33.1447 4.61631C35.7726 4.66771 38.3967 4.8449 41.0082 5.14652L36.141 17.7511C35.1758 17.4427 34.1741 17.2276 33.1447 17.1181V4.61631ZM44.3615 5.59963C47.5837 6.10414 50.7805 6.80071 53.9371 7.68394L41.6453 20.862C40.8707 20.1911 40.0368 19.596 39.1537 19.0861L44.3603 5.60098L44.3615 5.59963ZM8.88795 34.1686V26.1302L16.1055 29.3372C15.7447 30.6208 15.5202 31.9666 15.4483 33.3557C13.2569 32.8633 10.9431 33.1338 8.88795 34.1686ZM36.2078 34.2998C33.2847 32.7213 29.7951 32.7213 26.872 34.2998C25.4817 35.0504 23.9842 35.4319 22.4211 35.4319C21.1229 35.4319 19.8714 35.1681 18.6868 34.6501C18.6843 34.5378 18.683 34.4242 18.683 34.3119C18.683 26.7119 24.451 20.5279 31.5399 20.5279C38.6288 20.5279 44.3969 26.7119 44.3969 34.3119C44.3969 34.4242 44.3918 34.5378 44.3893 34.6514C43.2059 35.1695 41.9557 35.4319 40.6588 35.4319C39.0956 35.4319 37.5981 35.0518 36.2078 34.2998ZM47.6316 33.3557C47.5609 31.9625 47.3339 30.614 46.9718 29.3277L54.1919 26.1194V34.1686C52.1368 33.1338 49.8217 32.8633 47.6316 33.3557Z" fill="white"/>
<path d="M54.4469 43.7397C51.5238 42.1613 48.0342 42.1613 45.1111 43.7397C43.7208 44.4904 42.2233 44.8718 40.6602 44.8718C39.0971 44.8718 37.5995 44.4918 36.2093 43.7397C33.2861 42.1613 29.7966 42.1613 26.8734 43.7397C25.4832 44.4904 23.9856 44.8718 22.4225 44.8718C20.8594 44.8718 19.3619 44.4918 17.9716 43.7397C15.0485 42.1613 11.5577 42.1613 8.63579 43.7397C7.24551 44.4904 5.748 44.8718 4.18488 44.8718C2.71764 44.8718 1.29708 44.5256 0.00268555 43.8791V47.6378C1.33367 48.1153 2.74287 48.3669 4.18488 48.3669C6.26147 48.3669 8.25227 47.861 10.1018 46.8615C12.1367 45.7618 14.4707 45.7618 16.5056 46.8615C18.3551 47.8597 20.3459 48.3669 22.4225 48.3669C24.4991 48.3669 26.4899 47.861 28.3394 46.8615C30.3744 45.7618 32.7083 45.7618 34.7433 46.8615C36.5928 47.8597 38.5836 48.3669 40.6602 48.3669C42.7368 48.3669 44.7276 47.861 46.5771 46.8615C48.612 45.7618 50.946 45.7632 52.9809 46.8615C54.8304 47.8597 56.8212 48.3669 58.8978 48.3669C60.3411 48.3669 61.749 48.1153 63.08 47.6378V43.8791C61.7856 44.5256 60.3651 44.8718 58.8978 44.8718C57.3347 44.8718 55.8372 44.4918 54.4469 43.7397Z" fill="white"/>
<path d="M54.4466 53.179C51.5235 51.6005 48.0339 51.6005 45.1108 53.179C43.7205 53.9296 42.223 54.3111 40.6599 54.3111C39.0967 54.3111 37.5992 53.931 36.2089 53.1803C33.2757 51.5965 29.8051 51.5965 26.8719 53.1803C25.4816 53.931 23.9841 54.3124 22.4209 54.3124C20.8578 54.3124 19.3603 53.931 17.97 53.1803C15.0469 51.6019 11.5561 51.6019 8.63421 53.1803C7.24393 53.931 5.74641 54.3124 4.18329 54.3124C2.71606 54.3124 1.2955 53.9662 0.00109863 53.3196C0.00109863 55.7773 1.84555 57.7993 4.13788 57.8075C4.15301 57.8075 4.16815 57.8075 4.18329 57.8075C5.84356 57.8075 7.44831 57.4828 8.96979 56.8431C9.57662 57.6411 10.2364 58.3918 10.948 59.0843L31.5398 79.1307L52.1316 59.0843C52.8431 58.3918 53.5029 57.6411 54.1097 56.8431C55.6312 57.4828 57.236 57.8075 58.8962 57.8075C58.9114 57.8075 58.9265 57.8075 58.9417 57.8075C61.234 57.7993 63.0784 55.7773 63.0784 53.3196C61.784 53.9662 60.3635 54.3124 58.8962 54.3124C57.3331 54.3124 55.8356 53.931 54.4453 53.1803L54.4466 53.179ZM25.3542 66.8954C26.3861 66.6451 27.3878 66.2597 28.3517 65.7403C30.3778 64.646 32.703 64.646 34.7291 65.7403C35.6917 66.261 36.6947 66.6451 37.7266 66.8954L31.541 72.917L25.3554 66.8954H25.3542ZM40.9689 63.7385C40.8554 63.7425 40.7419 63.7466 40.6296 63.7466C39.0728 63.7466 37.5816 63.3679 36.1963 62.6199C33.282 61.0455 29.8013 61.0455 26.8857 62.6199C25.5005 63.3679 24.0093 63.7466 22.4525 63.7466C22.3389 63.7466 22.2267 63.7425 22.1131 63.7385L13.8332 55.6785C13.7689 55.6163 13.7046 55.5514 13.6402 55.4865C14.6192 55.5379 15.5919 55.807 16.5041 56.3007C18.3536 57.2989 20.3444 57.8061 22.4209 57.8061C24.4975 57.8061 26.4883 57.3002 28.3378 56.3007C30.3728 55.2011 32.7067 55.2011 34.7417 56.3007C36.5912 57.2989 38.582 57.8061 40.6586 57.8061C42.7352 57.8061 44.726 57.3002 46.5755 56.3007C47.4876 55.8084 48.4603 55.5378 49.4393 55.4878C49.375 55.5527 49.3106 55.6163 49.2463 55.6785L40.9664 63.7385H40.9689Z" fill="white"/>
</svg>
