<?xml version="1.0" encoding="UTF-8"?>
<svg id="_レイヤー_2" xmlns="http://www.w3.org/2000/svg" version="1.1" viewBox="0 0 466 197.5">
  <!-- Generator: Adobe Illustrator 29.2.1, SVG Export Plug-In . SVG Version: 2.1.0 Build 116)  -->
  <defs>
    <style>
      .st0 {
        fill: #036eb8;
      }
    </style>
  </defs>
  <g id="_レイヤー_1-2">
    <path class="st0" d="M0,180.1c0,18.1,65.6,17.4,80.1,17.4h283c42.2.6,102.9-40.5,102.9-58.6s-6.1-6.4-33.4-6.8l26.2-44.6c.8-1.3.7-2.9-.1-4.1-.8-1.2-2.3-1.9-3.8-1.6l-31.2,5.1c-.7,0-1.4.4-1.9.9l-49.8,44.2h-100L337.7,5.6c.7-1.3.5-2.9-.4-4.1-.9-1.2-2.4-1.7-3.8-1.4l-52.4,10.8c-.8.2-1.5.6-2.1,1.2l-108.1,120.1h-90.9C52.4,134.9,0,162.1,0,180.1ZM287.8,159.9c0-4.8,3.9-8.7,8.7-8.7h8.1c4.8,0,8.7,3.9,8.7,8.7s-3.9,8.7-8.7,8.7h-8.1c-4.8,0-8.7-3.9-8.7-8.7ZM247.5,159.9c0-4.8,3.9-8.7,8.7-8.7h8.1c4.8,0,8.7,3.9,8.7,8.7s-3.9,8.7-8.7,8.7h-8.1c-4.8,0-8.7-3.9-8.7-8.7h0ZM207.1,159.9c0-4.8,3.9-8.7,8.7-8.7h8.1c4.8,0,8.7,3.9,8.7,8.7s-3.9,8.7-8.7,8.7h-8.1c-4.8,0-8.7-3.9-8.7-8.7ZM166.8,159.9c0-4.8,3.9-8.7,8.7-8.7h8.1c4.8,0,8.7,3.9,8.7,8.7s-3.9,8.7-8.7,8.7h-8.1c-4.8,0-8.7-3.9-8.7-8.7ZM126.4,159.9c0-4.8,3.9-8.7,8.7-8.7h8.1c4.8,0,8.7,3.9,8.7,8.7s-3.9,8.7-8.7,8.7h-8.1c-4.8,0-8.7-3.9-8.7-8.7ZM36.4,163.3c0-4.8,13.9-12.1,18.7-12.1h26.7c4.8,0,8.7,3.9,8.7,8.7s-3.9,8.7-8.7,8.7h-26.7c-4.8,0-18.7-.4-18.7-5.2h0Z"/>
  </g>
</svg>