<svg width="896" height="456" viewBox="0 0 896 456" fill="none" xmlns="http://www.w3.org/2000/svg">
<g filter="url(#filter0_d_23_17)">
<path d="M155.956 25.2007C-70.8696 12.7253 114.039 306.996 155.956 356.701C216.456 428.44 605.962 368.994 746.456 428.44C947.956 513.701 874.956 295.201 866.956 183.701C820.956 -87.299 555.956 47.2007 155.956 25.2007Z" fill="#AC198A"/>
<path d="M62.4561 342.201C5.95608 339.201 8.17477 371.13 12.9561 398.201C13.9703 407.474 16.9031 423.769 62.4561 442.201C108.009 460.632 116.55 420.371 114.956 398.201C113.362 376.031 118.956 345.201 62.4561 342.201Z" fill="#AC198A"/>
</g>
<path d="M150.956 18.2007C-75.8696 5.72529 109.039 299.996 150.956 349.701C211.456 421.44 600.962 361.994 741.456 421.44C942.956 506.701 869.956 288.201 861.956 176.701C815.956 -94.299 550.956 40.2007 150.956 18.2007Z" fill="white"/>
<path d="M57.4561 335.201C0.956078 332.201 3.17477 364.13 7.95609 391.201C8.97032 400.474 11.9031 416.769 57.4561 435.201C103.009 453.632 111.55 413.371 109.956 391.201C108.362 369.031 113.956 338.201 57.4561 335.201Z" fill="white"/>
<path d="M145.228 14.3504C-81.5976 1.87495 103.311 296.146 145.228 345.85C205.728 417.59 595.234 358.143 735.728 417.59C937.228 502.85 864.228 284.351 856.228 172.85C810.228 -98.1494 545.228 36.3504 145.228 14.3504Z" fill="#39C3B7"/>
<path d="M51.7281 331.35C-4.77195 328.35 -2.55326 360.28 2.22807 387.35C3.24229 396.624 6.17505 412.919 51.7281 431.35C97.2811 449.782 105.822 409.521 104.228 387.35C102.634 365.18 108.228 334.35 51.7281 331.35Z" fill="#39C3B7"/>
<defs>
<filter id="filter0_d_23_17" x="10.728" y="10.8503" width="884.623" height="444.875" filterUnits="userSpaceOnUse" color-interpolation-filters="sRGB">
<feFlood flood-opacity="0" result="BackgroundImageFix"/>
<feColorMatrix in="SourceAlpha" type="matrix" values="0 0 0 0 0 0 0 0 0 0 0 0 0 0 0 0 0 0 127 0" result="hardAlpha"/>
<feOffset dx="5" dy="4"/>
<feGaussianBlur stdDeviation="2"/>
<feComposite in2="hardAlpha" operator="out"/>
<feColorMatrix type="matrix" values="0 0 0 0 0 0 0 0 0 0 0 0 0 0 0 0 0 0 0.25 0"/>
<feBlend mode="normal" in2="BackgroundImageFix" result="effect1_dropShadow_23_17"/>
<feBlend mode="normal" in="SourceGraphic" in2="effect1_dropShadow_23_17" result="shape"/>
</filter>
</defs>
</svg>
